<?xml version="1.0" encoding="UTF-8"?>
<svg width="392px" height="85px" viewBox="0 0 392 85" version="1.1" xmlns="http://www.w3.org/2000/svg" xmlns:xlink="http://www.w3.org/1999/xlink">
    <title>Group 2</title>
    <g id="Page-1" stroke="none" stroke-width="1" fill="none" fill-rule="evenodd">
        <g id="Group-2">
            <text id="Promptli" font-family="Raleway-Medium, Raleway" font-size="72" font-weight="400" fill="#FFFFFF">
                <tspan x="105.22" y="68">Promptli</tspan>
            </text>
            <g id="signal" transform="translate(0.000000, 11.000000)" fill-rule="nonzero">
                <path d="M49,24 C53.9764682,24 58,28.0235318 58,33 C58,37.9764682 53.9764682,42 49,42 C44.0235318,42 40,37.9764682 40,33 C40,28.0235318 44.0235318,24 49,24 Z" id="Path" fill-opacity="0" fill="#4DCFE0"></path>
                <g id="Group" fill="#FFFFFF">
                    <path d="M48.4987643,45.2000492 C41.7202972,45.2000492 36.125189,39.6830585 36.125189,32.9987815 C36.125189,26.3145046 41.7200913,20.7975138 48.4987643,20.7975138 C55.2774374,20.7975138 60.8723397,26.3145046 60.8723397,32.9987815 C60.8723397,39.6830585 55.2772314,45.2000492 48.4987643,45.2000492 Z M48.4987643,27.1633662 C45.2709915,27.1633662 42.5809406,29.8157538 42.5809406,32.9987815 C42.5809406,36.1818092 45.2707856,38.8341969 48.4987643,38.8341969 C51.7267431,38.8341969 54.4165881,36.1818092 54.4165881,32.9987815 C54.4165881,29.8157538 51.7265372,27.1633662 48.4987643,27.1633662 Z" id="Shape"></path>
                    <path d="M15.5743694,65.8889169 C14.7135202,65.8889169 13.96038,65.5706954 13.314949,64.9340492 C-4.43831635,47.3217969 -4.43831635,18.6755631 13.314949,1.06351385 C14.606017,-0.209575385 16.650431,-0.209575385 17.8339958,1.06351385 C19.1250637,2.33660308 19.1250637,4.35254769 17.8339958,5.51963077 C2.55536306,20.6915077 2.55536306,45.3060554 17.8339958,60.4781354 C19.1250637,61.7512246 19.1250637,63.7671692 17.8339958,64.9342523 C17.1883588,65.5706954 16.4352187,65.8889169 15.5743694,65.8889169 Z" id="Path"></path>
                    <path d="M81.4229533,65.8889169 C80.562104,65.8889169 79.8089639,65.5706954 79.1635329,64.9340492 C77.872465,63.66096 77.872465,61.6450154 79.1635329,60.4779323 C94.4421656,45.3060554 94.4421656,20.6915077 79.1635329,5.51942769 C77.872465,4.24633846 77.872465,2.23039385 79.1635329,1.06331077 C80.4546008,-0.209778462 82.4990149,-0.209778462 83.6825796,1.06331077 C101.435845,18.6755631 101.435845,47.3217969 83.6825796,64.9338462 C83.0369427,65.5706954 82.2838025,65.8889169 81.4229533,65.8889169 Z" id="Path"></path>
                    <path d="M29.2392187,52.5205662 C28.3783694,52.5205662 27.6252293,52.2023446 26.9797983,51.5656985 C16.5429278,41.2741662 16.5429278,24.6169846 26.9797983,14.4316615 C28.2708662,13.1585723 30.3152803,13.1585723 31.498845,14.4316615 C32.789913,15.7047508 32.789913,17.7206954 31.498845,18.8877785 C23.6443163,26.6329292 23.6443163,39.2584246 31.498845,47.1095815 C32.789913,48.3826708 32.789913,50.3986154 31.498845,51.5656985 C30.8530021,52.2023446 30.099862,52.5205662 29.2392187,52.5205662 Z" id="Path"></path>
                    <path d="M67.75831,52.5205662 C66.8974607,52.5205662 66.1443206,52.2023446 65.4988896,51.5656985 C64.2078217,50.2926092 64.2078217,48.2766646 65.4988896,47.1095815 C73.3534183,39.3644308 73.3534183,26.7389354 65.4988896,18.8877785 C64.2078217,17.6146892 64.2078217,15.5987446 65.4988896,14.4316615 C66.7899575,13.1585723 68.8343715,13.1585723 70.0179363,14.4316615 C80.4548068,24.7231938 80.4548068,41.3803754 70.0179363,51.5656985 C69.3722994,52.2023446 68.6191592,52.5205662 67.75831,52.5205662 Z" id="Path"></path>
                </g>
            </g>
        </g>
    </g>
</svg>